<svg xmlns="http://www.w3.org/2000/svg" viewBox="0 0 24 24" pointer-events="none" display="block" width="24" height="24"><path d="M22 4v-.5C22 2.1 20.9 1 19.5 1S17 2.1 17 3.5V4c-.6 0-1 .4-1 1v4c0 .6.4 1 1 1h5c.6 0 1-.4 1-1V5c0-.6-.4-1-1-1zm-.8 0h-3.4v-.5c0-.9.8-1.7 1.7-1.7.9 0 1.7.8 1.7 1.7V4zm-2.3 8c0 .3.1.7.1 1 0 2.1-.8 4-2.1 5.4-.3-.8-1-1.4-1.9-1.4h-1v-3c0-.6-.4-1-1-1H7v-2h2c.6 0 1-.4 1-1V8h2c1.1 0 2-.9 2-2V3.5c-.9-.3-2-.5-3-.5C5.5 3 1 7.5 1 13s4.5 10 10 10 10-4.5 10-10c0-.3 0-.7-.1-1h-2zM10 20.9C6.1 20.4 3 17 3 13c0-.6.1-1.2.2-1.8L8 16v1c0 1.1.9 2 2 2v1.9z"/></svg>