<svg xmlns="http://www.w3.org/2000/svg" viewBox="0 0 24 24" pointer-events="none" display="block" width="24" height="24"><path d="M12 10c-1.1 0-2 .9-2 2s.9 2 2 2 2-.9 2-2-.9-2-2-2zm7-7H5c-1.1 0-2 .9-2 2v14c0 1.1.9 2 2 2h14c1.1 0 2-.9 2-2V5c0-1.1-.9-2-2-2zm-1.8 9v.7l1.5 1.2c.1.1.2.3.1.4l-1.4 2.4c-.1.2-.3.2-.4.2l-1.7-.7c-.4.3-.8.5-1.2.7l-.3 1.9c0 .2-.2.3-.3.3h-2.8c-.2 0-.3-.1-.3-.3l-.4-1.9c-.4-.2-.8-.4-1.2-.7l-1.7.7c-.2.1-.3 0-.4-.2l-1.4-2.4c-.1-.2 0-.3.1-.4l1.5-1.2v-1.4l-1.5-1.2c-.1-.1-.2-.3-.1-.4l1.4-2.4c.1-.2.3-.2.4-.2l1.7.7c.4-.2.8-.5 1.2-.7l.3-1.9c0-.2.2-.3.3-.3h2.8c.2 0 .3.1.3.3l.3 1.9c.4.2.8.4 1.2.7l1.7-.7c.2-.1.3 0 .4.2l1.4 2.4c.1.2 0 .3-.1.4l-1.5 1.2c.1.2.1.5.1.7z"/></svg>