<svg xmlns="http://www.w3.org/2000/svg" viewBox="0 0 24 24" pointer-events="none" display="block" width="24" height="24"><path d="M20 15.5c-1.2 0-2.4-.2-3.6-.6-.3-.1-.7 0-1 .2l-2.2 2.2c-2.8-1.4-5.1-3.8-6.6-6.6l2.2-2.2c.3-.3.4-.7.2-1-.3-1.1-.5-2.3-.5-3.5 0-.6-.4-1-1-1H4c-.6 0-1 .4-1 1 0 9.4 7.6 17 17 17 .6 0 1-.4 1-1v-3.5c0-.6-.4-1-1-1zM20 4v-.5C20 2.1 18.9 1 17.5 1S15 2.1 15 3.5V4c-.6 0-1 .4-1 1v4c0 .6.4 1 1 1h5c.6 0 1-.4 1-1V5c0-.6-.4-1-1-1zm-.8 0h-3.4v-.5c0-.9.8-1.7 1.7-1.7.9 0 1.7.8 1.7 1.7V4z"/></svg>