<svg xmlns="http://www.w3.org/2000/svg" viewBox="0 0 24 24" pointer-events="none" display="block" width="24" height="24"><path d="M11.3 8.6c.1 0 .1 0 0 0 .1-.4.2-.6.2-.9v-.2c.1-.5.1-.9 0-1v-.1l-.1-.1s0 .1-.1.1c-.2.6-.2 1.3 0 2.2zm-3 6.9c-.2.1-.4.2-.5.3-.7.6-1.2 1.3-1.3 1.6.6-.1 1.2-.7 1.8-1.9.1 0 .1 0 0 0 .1 0 0 0 0 0zm9.2-1.5c-.1-.1-.5-.4-1.9-.4h-.2v.1c.7.3 1.4.5 1.9.5H17.6v-.1s-.1 0-.1-.1zM19 3H5c-1.1 0-2 .9-2 2v14c0 1.1.9 2 2 2h14c1.1 0 2-.9 2-2V5c0-1.1-.9-2-2-2zm-1.1 11.8c-.2.1-.5.2-.9.2-.8 0-2-.2-3-.7-1.7.2-3 .4-4 .8-.1 0-.1 0-.2.1-1.2 2.1-2.2 3.1-3 3.1-.2 0-.3 0-.4-.1l-.5-.3v-.1c-.1-.2-.1-.3-.1-.5.1-.5.7-1.4 1.9-2.1.2-.1.5-.3.9-.5.3-.5.6-1.1 1-1.8.5-1 .8-2 1.1-2.9-.4-1.2-.6-1.9-.2-3.3.1-.4.4-.8.8-.8h.2c.2 0 .4.1.6.2.7.7.4 2.3 0 3.6v.1c.4 1.1 1 2 1.6 2.6.3.2.5.4.9.6.5 0 .9-.1 1.3-.1 1.2 0 2 .2 2.3.7.1.2.1.4.1.6-.1.1-.2.4-.4.6zm-6.5-3.9c-.2.7-.6 1.5-1 2.4-.2.4-.4.7-.6 1.1h.2c1.3-.5 2.5-.8 3.3-.9-.2-.1-.3-.2-.4-.3-.5-.6-1.1-1.4-1.5-2.3z"/></svg>