<svg xmlns="http://www.w3.org/2000/svg" viewBox="0 0 24 24" pointer-events="none" display="block" width="24" height="24"><path d="M20 10h-3V8.9c1.7-.4 3-2 3-3.9h-3V4c0-.6-.4-1-1-1H8c-.6 0-1 .4-1 1v1H4c0 1.9 1.3 3.4 3 3.9V10H4c0 1.9 1.3 3.4 3 3.9V15H4c0 1.9 1.3 3.4 3 3.9V20c0 .6.4 1 1 1h8c.6 0 1-.4 1-1v-1.1c1.7-.4 3-2 3-3.9h-3v-1.1c1.7-.5 3-2 3-3.9zm-8 9c-1.1 0-2-.9-2-2s.9-2 2-2 2 .9 2 2-.9 2-2 2zm0-5c-1.1 0-2-.9-2-2s.9-2 2-2 2 .9 2 2-.9 2-2 2zm0-5c-1.1 0-2-.9-2-2s.9-2 2-2 2 .9 2 2-.9 2-2 2z"/></svg>