<svg xmlns="http://www.w3.org/2000/svg" viewBox="0 0 24 24" pointer-events="none" display="block" width="24" height="24"><path d="M12 2C6.5 2 2 6.5 2 12s4.5 10 10 10 10-4.5 10-10S17.5 2 12 2zm0 2c3 0 5.5 1.6 6.9 4H12c-1.9 0-3.6 1.4-3.9 3.2L5.7 7.1C7.2 5.2 9.4 4 12 4zm3 8c0 1.7-1.3 3-3 3s-3-1.3-3-3 1.3-3 3-3 3 1.3 3 3zM4 12c0-1.5.4-2.8 1.1-4l3.5 6c.7 1.2 2 2 3.4 2 .5 0 .9-.1 1.3-.2l-2.4 4.1C7 19.4 4 16 4 12zm8 8l3.5-6c.3-.6.6-1.3.6-2 0-1.2-.5-2.3-1.4-3h4.8c.4.9.6 1.9.6 3-.1 4.4-3.7 8-8.1 8z"/></svg>