<svg xmlns="http://www.w3.org/2000/svg" viewBox="0 0 24 24" pointer-events="none" display="block" width="24" height="24"><path d="M23.3 12.8l-2.6-2.6-1.4 1.4 2.2 2.2-5.7 5.7L4.5 8.2l5.7-5.7 2.1 2.1 1.4-1.4L11.3.8C10.7.2 9.8.2 9.2.8L2.7 7.1c-.6.6-.6 1.5 0 2.1l12 12c.6.6 1.5.6 2.1 0l6.4-6.4c.6-.5.6-1.4.1-2zM8.5 20.5c-3.3-1.5-5.6-4.7-6-8.5H1c.5 6.2 5.7 11 11.9 11h.7l-3.8-3.8-1.3 1.3zM16 9h5c.6 0 1-.4 1-1V4c0-.6-.4-1-1-1v-.5C21 1.1 19.9 0 18.5 0S16 1.1 16 2.5V3c-.6 0-1 .4-1 1v4c0 .6.4 1 1 1zm.8-6.5c0-.9.8-1.7 1.7-1.7.9 0 1.7.8 1.7 1.7V3h-3.4v-.5z"/></svg>