<svg xmlns="http://www.w3.org/2000/svg" viewBox="0 0 24 24" pointer-events="none" display="block" width="24" height="24"><path d="M12 2C6.5 2 2 6.5 2 12s4.5 10 10 10 10-4.5 10-10S17.5 2 12 2zm0 18.2c-1.1 0-2.2-.2-3.2-.6-.6-1.5-.6-2.6 1.1-2.1 0 0 3.9 1.5 8 .1-1.4 1.6-3.5 2.6-5.9 2.6zm7.1-4.1c-.9.4-2.1 1-4 1s-3.5-.8-5.6-1.4c-1.9-.6-2.6-1.5-3.8-1.5-.7 0-1 .7-1.2 1.2-.5-1-.8-2.2-.8-3.4 0-.8.1-1.6.3-2.3 1.3-1.6 3.2-2.6 6-.4 0 0 6.2 4.7 9.8 5-.1.6-.4 1.2-.7 1.8zm-6.7-8.5C9.6 4.9 7.3 5.7 6.3 6.1c.7-.7 1.6-1.3 2.6-1.7 2.8-.1 5.9.4 7.6 2.9 0 0 2.4 4.2 3.3 2.3.2.7.3 1.5.3 2.3v.9c-2-.2-4.8-2.5-7.7-5.2z"/></svg>