<svg xmlns="http://www.w3.org/2000/svg" viewBox="0 0 24 24" pointer-events="none" display="block" width="24" height="24"><path d="M4.6 6.9c.7-.7 1.4-1.4 1.7-1.2.5.2 0 1-.3 1.5-.3.4-2.9 3.9-2.9 6.3 0 1.3.5 2.3 1.3 3 .8.6 1.7.7 2.6.5 1.1-.3 1.9-1.4 3.1-2.8 1.2-1.5 2.8-3.4 4.1-3.4 1.6 0 1.6 1 1.8 1.8-3.8.6-5.4 3.7-5.4 5.4 0 1.7 1.4 3.1 3.2 3.1 1.6 0 4.3-1.3 4.7-6.1H21v-2.5h-2.5c-.2-1.6-1.1-4.2-4-4.2-2.2 0-4.2 1.9-4.9 2.8-.6.7-2.1 2.5-2.3 2.7-.3.3-.7.8-1.1.8-.4 0-.7-.8-.4-1.9.4-1.1 1.4-2.9 1.9-3.5.7-1.2 1.2-2 1.2-3.3C8.9 3.7 7.3 3 6.4 3 5.1 3 4 4 3.7 4.3l-.9.9 1.8 1.7zm9.3 11.7c-.3 0-.7-.3-.7-.7 0-.6.7-2.2 2.9-2.8-.4 2.7-1.5 3.5-2.2 3.5z"/></svg>