<svg xmlns="http://www.w3.org/2000/svg" viewBox="0 0 24 24" pointer-events="none" display="block" width="24" height="24"><g><circle cx="6.5" cy="15.5" r="1.5"/><circle cx="17.5" cy="15.5" r="1.5"/><path d="M18.9 7c-.2-.6-.8-1-1.4-1H6V4L3 7l2 2 1 1V8h11.7l1.3 4H3v9c0 .6.4 1 1 1h1c.6 0 1-.4 1-1v-1h12v1c0 .6.4 1 1 1h1c.6 0 1-.4 1-1v-8l-2.1-6zM6.5 17c-.8 0-1.5-.7-1.5-1.5S5.7 14 6.5 14s1.5.7 1.5 1.5S7.3 17 6.5 17zm11 0c-.8 0-1.5-.7-1.5-1.5s.7-1.5 1.5-1.5 1.5.7 1.5 1.5-.7 1.5-1.5 1.5zM16 0v2H8v2h8v2l3-3-3-3z"/></g></svg>