<svg xmlns="http://www.w3.org/2000/svg" viewBox="0 0 24 24" pointer-events="none" display="block" width="24" height="24"><path d="M12 5.5c.8 0 1.5-.7 1.5-1.5 0-.3-.1-.5-.2-.8L12 1l-1.3 2.2c-.1.2-.2.5-.2.8 0 .8.7 1.5 1.5 1.5zM18.5 8H13V6.5h-2V8H5.5C3 8 1 10 1 12.5c0 1.6.8 2.9 2 3.7V23h18v-6.8c1.2-.8 2-2.2 2-3.7C23 10 21 8 18.5 8zm0 7c-.7 0-1.3-.3-1.8-.7l-1.5-1.5-1.5 1.5c-.4.4-1 .7-1.7.7s-1.3-.3-1.8-.7l-1.5-1.5-1.5 1.5c-.4.4-1 .7-1.7.7C4.1 15 3 13.9 3 12.5S4.1 10 5.5 10h13c1.4 0 2.5 1.1 2.5 2.5S19.9 15 18.5 15z"/></svg>