<svg xmlns="http://www.w3.org/2000/svg" viewBox="0 0 24 24" pointer-events="none" display="block" width="24" height="24"><path d="M20 2H4c-1.1 0-2 .9-2 2v16c0 1.1.9 2 2 2h16c1.1 0 2-.9 2-2V4c0-1.1-.9-2-2-2zm-7 14.2c-.8 0-1.6-.3-2.1-.9l-1 3.2-.1.2c-.2.3-.5.5-.9.5-.6 0-1.1-.5-1.1-1.1V18l.1-.2 1.8-5.6s-.2-.6-.2-1.5c0-1.7.9-2.2 1.7-2.2.7 0 1.4.3 1.4 1.3 0 1.3-.9 2-.9 3 0 .7.6 1.3 1.3 1.3 2.3 0 3.2-1.8 3.2-3.4 0-2.2-1.9-4-4.2-4-2.3 0-4.2 1.8-4.2 4 0 .7.2 1.3.5 1.9.1.2.1.3.1.5 0 .6-.4 1-1 1-.4 0-.7-.2-.9-.5-.5-.9-.8-1.9-.8-3 0-3.3 2.8-6 6.2-6 3.4 0 6.2 2.7 6.2 6 .1 2.8-1.5 5.6-5.1 5.6z"/></svg>