<svg xmlns="http://www.w3.org/2000/svg" viewBox="0 0 24 24" pointer-events="none" display="block" width="24" height="24"><path d="M23.7 16.7c-3-2.9-7.2-4.7-11.7-4.7-4.5 0-8.7 1.8-11.7 4.7-.2.2-.3.4-.3.7 0 .3.1.5.3.7l2.5 2.5c.2.2.4.3.7.3.3 0 .5-.1.7-.3.8-.7 1.7-1.4 2.7-1.9.3-.2.6-.5.6-.9v-3.1c1.4-.5 3-.7 4.6-.7s3.1.3 4.6.7v3.1c0 .4.2.7.6.9 1 .5 1.9 1.1 2.7 1.9.2.2.4.3.7.3.3 0 .5-.1.7-.3l2.5-2.5c.2-.2.3-.4.3-.7-.2-.3-.3-.5-.5-.7zM21.2 6.3l-1.4-1.4-3.6 3.6 1.4 1.4c0-.1 3.4-3.6 3.6-3.6zM13 2h-2v5h2V2zM6.4 9.8l1.4-1.4-3.5-3.6-1.5 1.5c.2 0 3.6 3.5 3.6 3.5z"/></svg>