<svg xmlns="http://www.w3.org/2000/svg" xmlns:xlink="http://www.w3.org/1999/xlink"><symbol viewBox="0 0 24 24" pointer-events="none" display="block" id="svg-icon-write20"><path d="M20 4H4c-1.1 0-2 .9-2 2v12c0 1.1.9 2 2 2h16c1.1 0 2-.9 2-2V6c0-1.1-.9-2-2-2zm0 4l-8 5-8-5V6l8 5 8-5v2z"/></symbol><symbol viewBox="0 0 24 24" pointer-events="none" display="block" id="svg-icon-youtube35"><path d="M20 4.4c-.6-.2-4.3-.4-8-.4s-7.4.2-8 .4c-1.6.5-2 4-2 7.6s.4 7.1 2 7.6c.6.2 4.3.4 8 .4s7.4-.2 8-.4c1.6-.5 2-4 2-7.6s-.4-7.1-2-7.6zM10 16.5v-9l6 4.5-6 4.5z"/></symbol></svg>